<?xml version="1.0" encoding="UTF-8"?>
<svg version="1.1" xmlns="http://www.w3.org/2000/svg" width="2276" height="800">
<path d="M0 0 C0.99757324 0.00032227 1.99514648 0.00064453 3.02294922 0.00097656 C14.61386474 0.35475551 24.25649764 5.0096092 32.875 12.75 C32.875 13.41 32.875 14.07 32.875 14.75 C33.67164063 15.0903125 33.67164063 15.0903125 34.484375 15.4375 C37.66494062 17.18369289 40.35498907 19.43061286 43.125 21.75 C43.67929688 22.20117188 44.23359375 22.65234375 44.8046875 23.1171875 C46.20231582 24.28073029 47.54385563 25.51094738 48.875 26.75 C48.875 27.41 48.875 28.07 48.875 28.75 C49.44734375 29.018125 50.0196875 29.28625 50.609375 29.5625 C52.95384634 30.79132636 54.99904938 32.17522176 57.125 33.75 C57.83140625 34.265625 58.5378125 34.78125 59.265625 35.3125 C59.79671875 35.786875 60.3278125 36.26125 60.875 36.75 C60.875 37.41 60.875 38.07 60.875 38.75 C61.41769531 38.97300781 61.96039062 39.19601563 62.51953125 39.42578125 C65.61538067 41.16623391 68.01099436 43.50351133 70.5625 45.9375 C74.79154733 49.89856809 79.10144431 53.57616004 83.7265625 57.07421875 C87.61162293 60.10456589 91.21935374 63.45003824 94.875 66.75 C99.75675943 71.08597266 104.71217761 75.3345761 109.6875 79.5625 C110.25114258 80.04307861 110.81478516 80.52365723 111.39550781 81.01879883 C113.82503489 83.07688438 116.22214316 84.98142877 118.875 86.75 C118.35216498 90.60382676 117.53451195 92.59570182 114.81152344 95.36279297 C114.16705261 96.02632782 113.52258179 96.68986267 112.85858154 97.37350464 C111.8070993 98.42225266 111.8070993 98.42225266 110.734375 99.4921875 C110.01517883 100.21995392 109.29598267 100.94772034 108.55499268 101.69754028 C107.03347251 103.23053375 105.50670017 104.75832968 103.97509766 106.28125 C101.62990764 108.62010561 99.31263691 110.98437108 96.99609375 113.3515625 C95.51464367 114.83755715 94.03162244 116.32198744 92.546875 117.8046875 C91.50753815 118.87165359 91.50753815 118.87165359 90.44720459 119.96017456 C89.79012512 120.60479645 89.13304565 121.24941833 88.45605469 121.91357422 C87.8839325 122.48695526 87.3118103 123.0603363 86.72235107 123.65109253 C84.875 124.75 84.875 124.75 82.26690674 124.52297974 C79.4001598 123.59654843 78.25677998 122.477791 76.25 120.25 C72.33498517 116.12157271 68.11842147 112.60993081 63.68359375 109.0546875 C60.89161751 106.76363607 58.22367046 104.37857365 55.5625 101.9375 C52.98877863 99.58775755 50.50576237 97.36957227 47.5625 95.5 C44.875 93.75 44.875 93.75 42.6015625 91.46484375 C39.23527699 88.11302651 35.60908977 85.19161425 31.89648438 82.23632812 C30.52036659 81.1166298 29.19294494 79.93762184 27.875 78.75 C27.875 78.09 27.875 77.43 27.875 76.75 C27.32070312 76.50378906 26.76640625 76.25757813 26.1953125 76.00390625 C23.42276479 74.50561026 21.17965336 72.69568288 18.75 70.6875 C17.78578125 69.89472656 16.8215625 69.10195313 15.828125 68.28515625 C12.12634564 65.10730598 8.62491509 61.74239057 5.1640625 58.3046875 C3.0026606 56.53247509 3.0026606 56.53247509 0.45703125 56.703125 C-2.93966981 58.08030486 -5.37913879 60.19908304 -8.0625 62.625 C-9.21550355 63.6350364 -10.37051824 64.64278077 -11.52734375 65.6484375 C-12.12015137 66.1650293 -12.71295898 66.68162109 -13.32373047 67.21386719 C-16.18452323 69.65356738 -19.15129863 71.95040402 -22.125 74.25 C-27.89104273 78.73043587 -33.48123137 83.38558289 -39.03515625 88.125 C-43.66925516 92.07604226 -48.40055473 95.90791436 -53.125 99.75 C-59.63834803 105.06722393 -66.13590005 110.40323201 -72.625 115.75 C-89.99572289 130.06012158 -89.99572289 130.06012158 -96.8125 135.5 C-101.20121631 139.00400683 -105.57382157 142.52739448 -109.9375 146.0625 C-110.55262451 146.55911133 -111.16774902 147.05572266 -111.80151367 147.56738281 C-113.08564059 148.60916265 -114.35749766 149.66622834 -115.61736774 150.737216 C-118.125 152.75 -118.125 152.75 -121.34830761 154.90918446 C-126.40862227 158.44565547 -130.41172224 161.47820842 -132.30687904 167.51428795 C-132.88254196 171.9672717 -132.73640229 176.40241711 -132.60083008 180.87963867 C-132.59684098 182.6131035 -132.59859466 184.3465894 -132.60557842 186.08004475 C-132.60849668 190.69526915 -132.53354042 195.30605291 -132.44164276 199.92023468 C-132.36722964 204.26030917 -132.36410341 208.59934074 -132.3548584 212.94006348 C-132.28682567 225.60645696 -132.10532788 238.27203569 -131.9375 250.9375 C-131.669375 279.255625 -131.40125 307.57375 -131.125 336.75 C-45.985 337.08 39.155 337.41 126.875 337.75 C125.33879786 291.77772613 125.33879786 291.77772613 123.36157227 245.82397461 C123.19579306 239.96794678 123.05566305 234.13288486 123.06640625 228.27734375 C123.06668548 227.51775321 123.06696471 226.75816267 123.0672524 225.97555423 C123.1667144 204.89935354 125.47885126 189.64497404 140.56126404 173.78358459 C163.30029665 151.75 163.30029665 151.75 178.875 151.75 C180.42541536 154.85083071 180.02298875 158.13008493 180.02217102 161.5337677 C180.02584771 162.34709822 180.0295244 163.16042874 180.0333125 163.99840564 C180.04437616 166.73958465 180.04819782 169.48072579 180.05200195 172.22192383 C180.05826492 174.18139772 180.06491157 176.14087041 180.07191467 178.1003418 C180.08934774 183.43769874 180.09988419 188.77504671 180.1081202 194.11242509 C180.11326885 197.44899733 180.11934486 200.78556679 180.12563133 204.12213707 C180.14469573 214.56647635 180.15892034 225.01080853 180.1672433 235.45516187 C180.17700054 247.50041295 180.2032753 259.54547953 180.24374419 271.59066564 C180.27395889 280.90463406 180.28871753 290.21854979 180.29202431 299.53256625 C180.29437003 305.09254711 180.30326718 310.65233114 180.32848549 316.21225929 C180.35186274 321.45143387 180.3559607 326.69028344 180.34572411 331.92949677 C180.34523087 333.84460471 180.35148828 335.75972917 180.36528015 337.67478752 C180.45560231 350.96890813 179.07465522 361.72402564 172.875 373.75 C172.215 373.75 171.555 373.75 170.875 373.75 C170.5346875 374.5853125 170.5346875 374.5853125 170.1875 375.4375 C165.36741967 383.93002249 155.81345652 388.81017973 146.91729045 391.92854297 C141.76422511 393.31993601 136.74966887 393.30419042 131.44033813 393.2646637 C130.23546387 393.27160922 129.03058961 393.27855475 127.789204 393.28571075 C124.475374 393.30074676 121.16245123 393.29808113 117.84866381 393.28755772 C114.26298763 393.28052661 110.67740051 393.29659317 107.0917511 393.30955505 C100.07902775 393.33113583 93.06646705 393.33108334 86.05372144 393.32292951 C80.35041809 393.31661513 74.64716197 393.31777969 68.9438591 393.32420158 C68.13037132 393.32510324 67.31688354 393.32600489 66.47874462 393.32693387 C64.82584099 393.32878518 63.17293737 393.33064775 61.52003376 393.33252143 C46.03913519 393.34907952 30.55832789 393.34039795 15.07743482 393.32353585 C0.93484337 393.30884345 -13.20753553 393.32346431 -27.35009961 393.35230602 C-41.89492339 393.38174565 -56.43964923 393.39265883 -70.98450148 393.38312382 C-72.63174349 393.38210133 -74.27898552 393.38110672 -75.92622757 393.3801403 C-76.73656598 393.37966391 -77.54690438 393.37918752 -78.3817985 393.3786967 C-84.07254698 393.37653844 -89.76320211 393.38630529 -95.4539299 393.40091133 C-102.3974522 393.41848522 -109.34070377 393.41824535 -116.28421567 393.39555968 C-119.82218393 393.38446254 -123.3596761 393.38115061 -126.89762306 393.39986038 C-130.7441177 393.41993894 -134.58987854 393.40077902 -138.43637085 393.37818909 C-140.09006009 393.39594268 -140.09006009 393.39594268 -141.77715719 393.41405493 C-155.0999945 393.25594226 -165.63002434 388.03256745 -175.0546875 378.875 C-182.52541771 370.9233215 -186.27465054 362.28096007 -186.27217102 351.43942261 C-186.27584771 350.58157988 -186.2795244 349.72373715 -186.2833125 348.83989918 C-186.29435942 345.95429528 -186.29819491 343.06872737 -186.30200195 340.18310547 C-186.3082659 338.11847316 -186.31491264 336.05384198 -186.32191467 333.98921204 C-186.33933205 328.37119989 -186.34987873 322.75319625 -186.3581202 317.13516378 C-186.36326943 313.62524486 -186.36934524 310.11532859 -186.37563133 306.60541153 C-186.39468657 295.62394423 -186.40891629 284.64248366 -186.4172433 273.66100299 C-186.42701405 260.98465058 -186.45332809 248.30847286 -186.49374419 235.632182 C-186.52390856 225.83503282 -186.53871254 216.0379337 -186.54202431 206.24073899 C-186.54437466 200.38915202 -186.55333312 194.5377516 -186.57848549 188.68621445 C-186.60177627 183.1786499 -186.60599523 177.6713946 -186.59572411 172.16379356 C-186.59522887 170.14541406 -186.60154579 168.12701928 -186.61528015 166.10868645 C-186.63302185 163.34624892 -186.62588169 160.58491848 -186.61274719 157.82247925 C-186.62371644 157.02975109 -186.63468568 156.23702293 -186.64598733 155.42027271 C-186.52543121 144.86827225 -180.6227497 135.29209371 -173.3515625 127.94921875 C-168.51465978 123.3866524 -163.50740489 119.23779125 -158.16894531 115.28344727 C-154.85443283 112.79677109 -151.64700003 110.18248368 -148.4375 107.5625 C-147.39940186 106.71776123 -147.39940186 106.71776123 -146.34033203 105.85595703 C-141.47968572 101.88860662 -136.68695101 97.84796554 -131.91699219 93.77246094 C-127.52166087 90.0379188 -122.9951538 86.49035206 -118.43847656 82.95581055 C-113.47780928 79.08348109 -108.71419784 75.00711831 -103.95996094 70.88574219 C-100.43744983 67.84275613 -96.85701009 64.96146498 -93.09375 62.21875 C-85.73393269 56.72809264 -78.81177647 50.64561151 -71.8215332 44.6965332 C-68.11838282 41.55725285 -64.33515318 38.55831391 -60.48046875 35.609375 C-57.57016384 33.31201988 -54.75525467 30.90888101 -51.9375 28.5 C-45.15344601 22.71621675 -38.21248874 17.15733061 -31.125 11.75 C-29.76181641 10.70779297 -29.76181641 10.70779297 -28.37109375 9.64453125 C-27.54738281 9.03996094 -26.72367188 8.43539062 -25.875 7.8125 C-25.18921875 7.30847656 -24.5034375 6.80445313 -23.796875 6.28515625 C-16.03431149 1.82508686 -8.93842353 -0.0272929 0 0 Z " fill="#F1F1F1" transform="translate(1124.125,203.25)"/>
<path d="M0 0 C4.46061478 2.61345242 8.634811 6.07394616 12 10 C12 10.66 12 11.32 12 12 C12.57596924 12.25072266 13.15193848 12.50144531 13.74536133 12.75976562 C16.30260515 14.16645741 18.01786236 15.77505693 20.07421875 17.84375 C20.82380859 18.59527344 21.57339844 19.34679687 22.34570312 20.12109375 C23.11849609 20.90613281 23.89128906 21.69117188 24.6875 22.5 C25.8640918 23.67755859 25.8640918 23.67755859 27.06445312 24.87890625 C34.16045139 32.03010243 34.16045139 32.03010243 34.5 38.125 C34.5721875 39.03507812 34.644375 39.94515625 34.71875 40.8828125 C32.99475492 48.35970422 24.62868683 54.51306761 19.30810547 59.80541992 C18.57384338 60.53982803 17.8395813 61.27423615 17.08306885 62.03089905 C14.68014047 64.4331366 12.27369916 66.83182134 9.8671875 69.23046875 C8.18501222 70.91077596 6.5030598 72.59130631 4.82131958 74.27204895 C0.4097847 78.67978146 -4.0047435 83.08450397 -8.41992188 87.48858643 C-12.91066389 91.96909458 -17.39857622 96.45243508 -21.88671875 100.93554688 C-29.13344793 108.17350284 -36.38190458 115.40972335 -43.63259888 122.64370728 C-44.87359028 123.88187985 -46.11421172 125.1204234 -47.35437393 126.3594265 C-48.83444188 127.83495019 -50.32098018 129.30397681 -51.80831909 130.77217102 C-54.13269886 133.06620943 -54.13269886 133.06620943 -56.5 136.0625 C-58.83796686 138.80961107 -61.19795051 140.75836041 -64 143 C-65.68732277 144.98260426 -67.35366057 146.9832342 -69 149 C-73.51612903 153.83870968 -73.51612903 153.83870968 -77 155 C-77.33 155.99 -77.66 156.98 -78 158 C-78.66 158 -79.32 158 -80 158 C-80.2475 158.598125 -80.495 159.19625 -80.75 159.8125 C-82.19192497 162.33586869 -83.52549626 163.50030076 -86 165 C-86.99 165 -87.98 165 -89 165 C-89.33 166.65 -89.66 168.3 -90 170 C-90.66 170 -91.32 170 -92 170 C-92.24153809 170.56460938 -92.48307617 171.12921875 -92.73193359 171.7109375 C-95.38779167 176.50518573 -99.78011211 180.14961156 -103.625 184 C-104.50285156 184.90234375 -105.38070313 185.8046875 -106.28515625 186.734375 C-113.27478124 193.75515731 -119.37886416 198.49603177 -129.5625 199.0859375 C-137.86423831 198.79324801 -144.20267338 193.59537057 -150 188 C-150 187.34 -150 186.68 -150 186 C-150.66 186 -151.32 186 -152 186 C-152 185.34 -152 184.68 -152 184 C-152.66 184 -153.32 184 -154 184 C-154 183.34 -154 182.68 -154 182 C-154.66 182 -155.32 182 -156 182 C-156 181.34 -156 180.68 -156 180 C-156.66 180 -157.32 180 -158 180 C-158 179.34 -158 178.68 -158 178 C-158.86625 177.6596875 -158.86625 177.6596875 -159.75 177.3125 C-162.59530878 175.65273655 -163.93653334 173.57933333 -166 171 C-167.31499451 169.81270124 -168.65007899 168.64743286 -170 167.5 C-173.07847367 164.87424305 -175.47092526 162.16134342 -178 159 C-179.31688753 157.81480123 -180.65203736 156.64973284 -182 155.5 C-185.07847367 152.87424305 -187.47092526 150.16134342 -190 147 C-191.06973948 146.05193195 -192.15711996 145.12367482 -193.25390625 144.20703125 C-199.14285184 139.10860175 -204.58891623 133.56049259 -210.08422852 128.04614258 C-211.95409753 126.17085437 -213.82932899 124.30104535 -215.70507812 122.43164062 C-216.89615461 121.23990435 -218.0869214 120.04785845 -219.27734375 118.85546875 C-220.11784523 118.01800362 -220.11784523 118.01800362 -220.97532654 117.16362 C-224.44559167 113.67210051 -226.15988978 111.72180029 -226.4609375 106.8046875 C-226.41696674 103.01865374 -225.79978182 101.16557219 -223.2265625 98.3828125 C-222.04821642 97.27285257 -220.84677668 96.18696623 -219.625 95.125 C-218.42803942 94.02522853 -217.23266298 92.92372983 -216.0390625 91.8203125 C-215.50490723 91.34867676 -214.97075195 90.87704102 -214.42041016 90.39111328 C-212.75448226 88.85523983 -212.75448226 88.85523983 -211 86 C-210.34 86 -209.68 86 -209 86 C-209 85.34 -209 84.68 -209 84 C-208.34 84 -207.68 84 -207 84 C-206.78085938 83.45601563 -206.56171875 82.91203125 -206.3359375 82.3515625 C-204.55991308 79.22534407 -202.1659592 76.87583879 -199.625 74.375 C-199.14289063 73.88515625 -198.66078125 73.3953125 -198.1640625 72.890625 C-194.23597457 68.98388537 -191.2820766 66.73143038 -185.6875 66.5625 C-180.45024168 66.65788053 -177.85159847 68.55814605 -174 72 C-174 72.66 -174 73.32 -174 74 C-173.01 74.33 -172.02 74.66 -171 75 C-171 75.66 -171 76.32 -171 77 C-170.43023438 77.24105469 -169.86046875 77.48210937 -169.2734375 77.73046875 C-166.55716666 79.24728666 -164.77554863 81.06762907 -162.625 83.3125 C-160.08217891 85.91784947 -157.57863304 88.4563157 -154.75 90.75 C-150.92161006 93.88231904 -147.54878285 97.43682539 -144.09765625 100.97265625 C-143.08598466 102.00265049 -142.07426543 103.03259793 -141.0625 104.0625 C-140.31323242 104.8369043 -140.31323242 104.8369043 -139.54882812 105.62695312 C-136.27053429 108.94754752 -132.96537678 111.53567494 -129 114 C-128.22914062 113.2059375 -127.45828125 112.411875 -126.6640625 111.59375 C-125.65130683 110.56223959 -124.63827148 109.53100373 -123.625 108.5 C-123.11710937 107.97535156 -122.60921875 107.45070313 -122.0859375 106.91015625 C-120.76167396 105.56846819 -119.38394135 104.28004185 -118 103 C-117.34 103 -116.68 103 -116 103 C-115.505 101.515 -115.505 101.515 -115 100 C-114.34 100 -113.68 100 -113 100 C-113 99.34 -113 98.68 -113 98 C-111.5307436 96.55130577 -111.5307436 96.55130577 -109.49909973 94.86898804 C-105.1194486 91.14173415 -101.05948356 87.18061609 -97.0144043 83.09619141 C-96.26037323 82.33909378 -95.50634216 81.58199615 -94.72946167 80.80195618 C-93.10517707 79.17056217 -91.48202264 77.53804227 -89.85989952 75.90449905 C-87.28403585 73.31110615 -84.7045256 70.72139133 -82.12397766 68.13265991 C-74.79163666 60.77599054 -67.46493844 53.41372094 -60.14282227 46.046875 C-55.65104196 41.52816708 -51.15428386 37.0144613 -46.65452003 32.50370407 C-44.95074148 30.79375811 -43.24885707 29.08192249 -41.54898643 27.36809158 C-24.46956043 10.14965082 -24.46956043 10.14965082 -15 3 C-14.30658005 2.45203766 -13.6131601 1.90407532 -12.89872742 1.33950806 C-8.7727715 -1.57125794 -4.67969716 -1.36803981 0 0 Z " fill="#F2F2F2" transform="translate(1295,267)"/>
<path d="M0 0 C2.68576575 1.36662737 4.60575595 3.1355493 6.80078125 5.19921875 C7.67476562 6.00746094 8.54875 6.81570312 9.44921875 7.6484375 C10.70605469 8.81826172 10.70605469 8.81826172 11.98828125 10.01171875 C16.5146124 14.25773962 16.5146124 14.25773962 21.98828125 17.01171875 C23.34656096 18.6581184 24.68082376 20.32467682 25.98828125 22.01171875 C26.64828125 22.34171875 27.30828125 22.67171875 27.98828125 23.01171875 C27.98828125 23.67171875 27.98828125 24.33171875 27.98828125 25.01171875 C28.54128906 25.25921875 29.09429688 25.50671875 29.6640625 25.76171875 C32.43016813 27.2493722 34.72812098 29.04491345 37.17578125 31.01171875 C38.49642578 32.06359375 38.49642578 32.06359375 39.84375 33.13671875 C41.98828125 35.01171875 41.98828125 35.01171875 42.98828125 37.01171875 C43.97828125 37.34171875 44.96828125 37.67171875 45.98828125 38.01171875 C47.67702004 39.65601704 49.3413364 41.32556093 50.98828125 43.01171875 C52.38046875 44.09453125 52.38046875 44.09453125 53.80078125 45.19921875 C54.52265625 45.79734375 55.24453125 46.39546875 55.98828125 47.01171875 C55.98828125 47.67171875 55.98828125 48.33171875 55.98828125 49.01171875 C56.54 49.25921875 57.09171875 49.50671875 57.66015625 49.76171875 C60.43964832 51.25406349 62.76975195 53.04844398 65.23828125 55.01171875 C66.1303125 55.71296875 67.02234375 56.41421875 67.94140625 57.13671875 C68.95460938 58.06484375 68.95460938 58.06484375 69.98828125 59.01171875 C69.98828125 59.67171875 69.98828125 60.33171875 69.98828125 61.01171875 C70.56449219 61.27082031 71.14070313 61.52992188 71.734375 61.796875 C74.16637912 63.10771257 75.99540546 64.60769709 78.05078125 66.44921875 C79.05818359 67.34447266 79.05818359 67.34447266 80.0859375 68.2578125 C81.28410498 69.36248847 82.45050336 70.50368783 83.56640625 71.69140625 C85.52978055 73.51453953 87.38442658 73.6598465 89.98828125 74.01171875 C88.00828125 76.32171875 86.02828125 78.63171875 83.98828125 81.01171875 C79.89006491 80.50472291 78.11187753 79.56302387 75.36328125 76.51171875 C71.44826642 72.38329146 67.23170272 68.87164956 62.796875 65.31640625 C60.00489876 63.02535482 57.33695171 60.6402924 54.67578125 58.19921875 C52.10205988 55.8494763 49.61904362 53.63129102 46.67578125 51.76171875 C43.98828125 50.01171875 43.98828125 50.01171875 41.71484375 47.7265625 C38.34855824 44.37474526 34.72237102 41.453333 31.00976562 38.49804688 C29.63364784 37.37834855 28.30622619 36.19934059 26.98828125 35.01171875 C26.98828125 34.35171875 26.98828125 33.69171875 26.98828125 33.01171875 C26.15683594 32.64240234 26.15683594 32.64240234 25.30859375 32.265625 C22.53604604 30.76732901 20.29293461 28.95740163 17.86328125 26.94921875 C16.8990625 26.15644531 15.93484375 25.36367188 14.94140625 24.546875 C11.23962689 21.36902473 7.73819634 18.00410932 4.27734375 14.56640625 C2.11594185 12.79419384 2.11594185 12.79419384 -0.4296875 12.96484375 C-3.82638856 14.34202361 -6.26585754 16.46080179 -8.94921875 18.88671875 C-10.1022223 19.89675515 -11.25723699 20.90449952 -12.4140625 21.91015625 C-13.30327393 22.68504395 -13.30327393 22.68504395 -14.21044922 23.47558594 C-17.07124198 25.91528613 -20.03801738 28.21212277 -23.01171875 30.51171875 C-28.77776148 34.99215462 -34.36795012 39.64730164 -39.921875 44.38671875 C-44.55597391 48.33776101 -49.28727348 52.16963311 -54.01171875 56.01171875 C-60.52506678 61.32894268 -67.0226188 66.66495076 -73.51171875 72.01171875 C-90.88244164 86.32184033 -90.88244164 86.32184033 -97.69921875 91.76171875 C-102.08793506 95.26572558 -106.46054032 98.78911323 -110.82421875 102.32421875 C-111.43934326 102.82083008 -112.05446777 103.31744141 -112.68823242 103.82910156 C-113.97235934 104.8708814 -115.24421641 105.92794709 -116.50408649 106.99893475 C-119.01171875 109.01171875 -119.01171875 109.01171875 -122.23502636 111.17090321 C-127.29534102 114.70737422 -131.29844099 117.73992717 -133.19359779 123.7760067 C-133.76926071 128.22899045 -133.62312104 132.66413586 -133.48754883 137.14135742 C-133.48355973 138.87482225 -133.48531341 140.60830815 -133.49229717 142.3417635 C-133.49521543 146.9569879 -133.42025917 151.56777166 -133.32836151 156.18195343 C-133.25394839 160.52202792 -133.25082216 164.86105949 -133.24157715 169.20178223 C-133.17354442 181.86817571 -132.99204663 194.53375444 -132.82421875 207.19921875 C-132.55609375 235.51734375 -132.28796875 263.83546875 -132.01171875 293.01171875 C-46.87171875 293.34171875 38.26828125 293.67171875 125.98828125 294.01171875 C124.45207911 248.03944488 124.45207911 248.03944488 122.47485352 202.08569336 C122.30875408 196.22961469 122.16785946 190.39465075 122.1796875 184.5390625 C122.1805482 183.39967669 122.1805482 183.39967669 122.18142629 182.23727298 C122.29058885 161.22498179 124.57980463 145.89572906 139.57688904 130.04530334 C150.37101646 119.53833257 160.54428287 109.67666672 175.98828125 108.01171875 C174.62588907 110.85395072 173.43594956 112.97199516 170.98828125 115.01171875 C170.32828125 115.01171875 169.66828125 115.01171875 168.98828125 115.01171875 C168.61703125 115.87023437 168.61703125 115.87023437 168.23828125 116.74609375 C166.79511926 119.36182486 165.10611903 121.15945331 162.98828125 123.26171875 C162.28703125 123.968125 161.58578125 124.67453125 160.86328125 125.40234375 C158.98828125 127.01171875 158.98828125 127.01171875 156.98828125 127.01171875 C156.6634375 127.82382812 156.6634375 127.82382812 156.33203125 128.65234375 C154.52328128 131.82817219 152.07104326 134.21899956 149.48828125 136.76171875 C148.98941406 137.26832031 148.49054688 137.77492188 147.9765625 138.296875 C144.24169264 142.01171875 144.24169264 142.01171875 141.98828125 142.01171875 C141.72015625 142.60984375 141.45203125 143.20796875 141.17578125 143.82421875 C139.98828125 146.01171875 139.98828125 146.01171875 138.43856239 147.25853539 C136.28795961 149.85830788 136.6059877 151.91093374 136.59628296 155.25015259 C136.58518997 156.5570253 136.57409698 157.86389801 136.56266785 159.21037292 C136.56543681 160.66189629 136.56848262 162.11341914 136.57177734 163.56494141 C136.56439965 165.09084238 136.55569537 166.61673743 136.54576111 168.1426239 C136.52240285 172.28910602 136.51728675 176.43543854 136.51510191 180.58197832 C136.50945013 184.91508561 136.48618398 189.24809473 136.46450806 193.58114624 C136.42595507 201.78926304 136.40175402 209.99735183 136.38338339 218.20553625 C136.34999055 232.91692985 136.2923611 247.62823975 136.22939169 262.33953321 C136.20784447 267.50668435 136.19260668 272.67380629 136.1825521 277.84099221 C136.17555641 281.0477624 136.16467964 284.25451161 136.15291023 287.46126747 C136.14833515 288.95407367 136.1455008 290.44688631 136.14448738 291.93969917 C136.14292618 293.96889196 136.13481633 295.99807663 136.12631226 298.0272522 C136.12375616 299.16545725 136.12120007 300.3036623 136.11856651 301.47635841 C135.98828125 304.01171875 135.98828125 304.01171875 134.98828125 305.01171875 C133.49742492 305.10850241 132.00198141 305.13543623 130.50798702 305.13476658 C129.53412861 305.13675763 128.56027019 305.13874868 127.55690092 305.14080006 C126.47423919 305.13788722 125.39157745 305.13497438 124.27610779 305.13197327 C122.56585949 305.1332549 122.56585949 305.1332549 120.82106072 305.13456243 C117.64226598 305.13593056 114.46351147 305.1327833 111.28472149 305.12778437 C107.86207586 305.12348301 104.43943224 305.12492607 101.01678467 305.12568665 C95.08214811 305.12621208 89.14752252 305.12306324 83.21288872 305.11744881 C74.63230801 305.10933645 66.05173262 305.10671886 57.4711485 305.10546082 C43.55115654 305.10326988 29.63117042 305.09660867 15.71118164 305.0871582 C2.18579131 305.07798516 -11.33959743 305.0709038 -24.86499023 305.06665039 C-26.1146538 305.06625631 -26.1146538 305.06625631 -27.38956309 305.06585426 C-31.56884833 305.06454926 -35.74813357 305.06328554 -39.92741883 305.06204236 C-74.62218964 305.05166845 -109.31695366 305.034049 -144.01171875 305.01171875 C-144.12846406 280.45559239 -144.21666386 255.89950755 -144.27077961 231.34315968 C-144.29657315 219.94148805 -144.33174582 208.53998876 -144.38891602 197.13842773 C-144.43871557 187.20208059 -144.47100139 177.26585822 -144.48216122 167.32938975 C-144.48868579 162.06690221 -144.50404448 156.80477169 -144.54036903 151.54239845 C-144.5742739 146.59050913 -144.5847828 141.63912434 -144.57725716 136.68712997 C-144.57863417 134.8686251 -144.58859946 133.05010359 -144.60774612 131.23169899 C-144.63259895 128.7498984 -144.62665355 126.27000632 -144.61299133 123.78816223 C-144.62755554 123.06733721 -144.64211975 122.34651219 -144.65712529 121.60384399 C-144.59937602 117.72700981 -144.12461397 116.1485857 -141.62379742 113.11675549 C-139.16812363 111.1377632 -136.72010887 109.61563794 -134.01171875 108.01171875 C-131.71588927 106.1920398 -129.52406017 104.25813532 -127.32421875 102.32421875 C-120.61442247 96.50202169 -113.75135234 90.92337997 -106.7421875 85.46484375 C-100.25561889 80.40546494 -93.873491 75.26171526 -87.61694336 69.91992188 C-83.76423109 66.63383664 -79.84384211 63.45248832 -75.875 60.30859375 C-72.0341988 57.22756905 -68.24390892 54.08674168 -64.44921875 50.94921875 C-59.25768665 46.65711421 -54.0528986 42.40336649 -48.67578125 38.34375 C-46.98334784 37.03971341 -46.98334784 37.03971341 -45.49609375 35.4921875 C-43.96675832 33.96687664 -42.39183094 32.76865499 -40.63671875 31.51171875 C-36.97038361 28.79863075 -33.47789123 25.91080847 -30.01171875 22.94921875 C-23.01013763 16.97004773 -15.89429615 11.13221719 -8.69921875 5.38720703 C-7.19300695 4.15948751 -5.73877221 2.86862739 -4.29296875 1.5703125 C-2.01171875 0.01171875 -2.01171875 0.01171875 0 0 Z " fill="#B1B1B1" transform="translate(1125.01171875,246.98828125)"/>
<path d="M0 0 C0.66 0.33 1.32 0.66 2 1 C1.278125 1.66386719 0.55625 2.32773437 -0.1875 3.01171875 C-1.115625 3.89472656 -2.04375 4.77773438 -3 5.6875 C-3.928125 6.55761719 -4.85625 7.42773438 -5.8125 8.32421875 C-8.14139826 10.7745454 -8.14139826 10.7745454 -8.59765625 13.52734375 C-7.75371656 17.01893738 -6.07763828 18.47487429 -3.4375 20.875 C-2.16712891 22.07769531 -2.16712891 22.07769531 -0.87109375 23.3046875 C1.92554413 25.27178539 1.92554413 25.27178539 5.3515625 25.07421875 C9.84738424 23.7505025 13.04603212 21.66209915 16.8125 18.9375 C23.78427694 14 23.78427694 14 26 14 C26 13.34 26 12.68 26 12 C26.99 12 27.98 12 29 12 C29 11.34 29 10.68 29 10 C32.70293685 9.66336938 34.39534381 9.52263985 37.375 11.875 C39 14 39 14 39 16 C39.66 16 40.32 16 41 16 C45 21.29411765 45 21.29411765 45 25 C43.82739389 23.71372289 42.6620717 22.42080217 41.5 21.125 C40.8503125 20.40570313 40.200625 19.68640625 39.53125 18.9453125 C38 17 38 17 38 15 C37.34 15 36.68 15 36 15 C35.505 14.01 35.505 14.01 35 13 C27.78766454 13.1567899 23.64004774 16.81915066 18 21 C16.10042688 22.35757536 14.18375 23.69156589 12.25 25 C11.38890625 25.598125 10.5278125 26.19625 9.640625 26.8125 C6.18776641 28.36526481 4.60179571 28.10894983 1 27 C-2.2109375 25.1796875 -2.2109375 25.1796875 -5.375 22.875 C-6.43460938 22.12992187 -7.49421875 21.38484375 -8.5859375 20.6171875 C-11 18 -11 18 -11.6953125 14.56640625 C-10.82429328 10.09876271 -8.78163068 7.97726533 -5.5 5.0625 C-4.97535156 4.56943359 -4.45070313 4.07636719 -3.91015625 3.56835938 C-2.62212635 2.36229501 -1.31305737 1.17876741 0 0 Z " fill="#BCBCBC" transform="translate(1156,390)"/>
<path d="M0 0 C0.99 0.33 1.98 0.66 3 1 C4.00496852 4.01490557 4.10335303 6.04181692 4.0625 9.1875 C4.05347656 10.08855469 4.04445313 10.98960937 4.03515625 11.91796875 C4.02355469 12.60503906 4.01195312 13.29210937 4 14 C3.67 14 3.34 14 3 14 C2.86722656 13.32453125 2.73445313 12.6490625 2.59765625 11.953125 C2.42105469 11.06109375 2.24445313 10.1690625 2.0625 9.25 C1.88847656 8.36828125 1.71445313 7.4865625 1.53515625 6.578125 C1.07631512 4.36764947 0.56663926 2.18487932 0 0 Z " fill="#BABABA" transform="translate(1204,418)"/>
</svg>
